<?xml version="1.0" encoding="UTF-8" standalone="no"?>
<!-- Created with Inkscape (http://www.inkscape.org/) -->

<svg
   width="157"
   height="75"
   viewBox="0 0 41.539582 19.843751"
   version="1.1"
   id="svg5"
   inkscape:version="1.1 (c68e22c387, 2021-05-23)"
   sodipodi:docname="logo.svg"
   xmlns:inkscape="http://www.inkscape.org/namespaces/inkscape"
   xmlns:sodipodi="http://sodipodi.sourceforge.net/DTD/sodipodi-0.dtd"
   xmlns="http://www.w3.org/2000/svg"
   xmlns:svg="http://www.w3.org/2000/svg">
  <sodipodi:namedview
     id="namedview7"
     pagecolor="#ffffff"
     bordercolor="#666666"
     borderopacity="1.0"
     inkscape:pageshadow="2"
     inkscape:pageopacity="0.0"
     inkscape:pagecheckerboard="0"
     inkscape:document-units="mm"
     showgrid="false"
     units="px"
     width="157px"
     inkscape:zoom="5.9722783"
     inkscape:cx="52.40881"
     inkscape:cy="23.52536"
     inkscape:window-width="2560"
     inkscape:window-height="1016"
     inkscape:window-x="2560"
     inkscape:window-y="27"
     inkscape:window-maximized="1"
     inkscape:current-layer="layer1" />
  <defs
     id="defs2" />
  <g
     inkscape:label="Camada 1"
     inkscape:groupmode="layer"
     id="layer1">
    <g
       style="fill:none"
       id="g1051"
       transform="matrix(0.13214279,0,0,0.13212841,11.213276,0.04951222)">
      <circle
         opacity="0.1"
         cx="75"
         cy="75"
         r="75"
         fill="#835afd"
         id="circle1024" />
      <path
         d="m 9,29.7229 v 33.0607 2.3614 c 0,2.6084 2.1145,4.723 4.7229,4.723 h 30.6992 l 12.6142,11.6438 c 0.8467,0.7816 2.1968,0.0117 1.9554,-1.115 L 56.2295,67.5065 h 8.2651 c 2.6084,0 4.7229,-2.1145 4.7229,-4.7229 V 29.7229 C 69.2175,27.1145 67.103,25 64.4946,25 H 13.7229 C 11.1145,25 9,27.1145 9,29.7229 Z"
         fill="#835afd"
         id="path1026" />
      <path
         d="m 149.218,57.7229 v 33.0607 2.3614 c 0,2.6084 -2.115,4.723 -4.723,4.723 h -30.7 l -12.614,11.644 c -0.846,0.781 -2.1966,0.012 -1.9551,-1.115 L 101.988,95.5065 H 93.7229 C 91.1145,95.5065 89,93.392 89,90.7836 V 57.7229 C 89,55.1145 91.1145,53 93.7229,53 h 50.7721 c 2.608,0 4.723,2.1145 4.723,4.7229 z"
         fill="#e559f9"
         id="path1028" />
      <path
         d="m 42,101.41 v 16.871 1.205 c 0,1.331 1.0886,2.41 2.4314,2.41 h 15.8039 l 6.4938,5.942 c 0.4358,0.399 1.1309,0.006 1.0066,-0.569 l -1.422,-6.578 h 4.2549 c 1.3428,0 2.4314,-1.079 2.4314,-2.41 V 101.41 C 73,100.079 71.9114,99 70.5686,99 H 44.4314 C 43.0886,99 42,100.079 42,101.41 Z"
         fill="#d67ee2"
         id="path1030" />
      <circle
         cx="25.5"
         cy="46.5"
         r="3.5"
         fill="#fefefe"
         id="circle1032" />
      <circle
         cx="38.5"
         cy="46.5"
         r="3.5"
         fill="#fefefe"
         id="circle1034" />
      <circle
         cx="51.5"
         cy="46.5"
         r="3.5"
         fill="#fefefe"
         id="circle1036" />
    </g>
    <text
       xml:space="preserve"
       style="font-weight:600;font-size:6.78036px;line-height:1.25;font-family:Lexend;-inkscape-font-specification:'Lexend Semi-Bold';fill:#222222;fill-opacity:1;stroke-width:0.16951"
       x="1.0832516"
       y="12.182241"
       id="text10251"
       transform="scale(0.98382717,1.0164387)"><tspan
         sodipodi:role="line"
         id="tspan10249"
         style="fill:#222222;fill-opacity:1;stroke-width:0.16951"
         x="1.0832516"
         y="12.182241">Let'me</tspan></text>
    <text
       xml:space="preserve"
       style="font-weight:600;font-size:8.46667px;line-height:1.25;font-family:Lexend;-inkscape-font-specification:'Lexend Semi-Bold';stroke-width:0.264583"
       x="23.343861"
       y="12.425723"
       id="text20515"><tspan
         sodipodi:role="line"
         id="tspan20513"
         style="font-style:normal;font-variant:normal;font-weight:bold;font-stretch:normal;font-size:8.46667px;font-family:Lexend;-inkscape-font-specification:'Lexend Bold';fill:#6f48c9;fill-opacity:1;stroke-width:0.264583"
         x="23.343861"
         y="12.425723">Ask</tspan></text>
  </g>
</svg>
